# xmcd CD database file
#
# Track frame offsets:
#	150
#	20897
#	40656
#	59815
#	80860
#	100544
#	122978
#	144995
#	164032
#	182793
#	202228
#	222550
#
# Disc length: 3250 seconds
#
# Revision: 0
# Processed by: cddbd v1.5.1PL0 Copyright (c) Steve Scherf et al.
# Submitted via: CDex 1.51
#
DISCID=c10cb00c
DTITLE=Bobby Cruz - 101 Bobby Cruz
DYEAR=1900
DGENRE=Salsa
TTITLE0=El Caballero de la Cruz
TTITLE1=Sali a la Luz
TTITLE2=Siempre lo Mismo
TTITLE3=Aprendi
TTITLE4=Sanson
TTITLE5=Lazos de Amor
TTITLE6=Cristo
TTITLE7=Huellas
TTITLE8=Hay Que Darse Prisa
TTITLE9=Metiendo Mano con Dios
TTITLE10=El Amor Nunca se Olvida
TTITLE11=Toda la Verdad
EXTD=
EXTT0=
EXTT1=
EXTT2=
EXTT3=
EXTT4=
EXTT5=
EXTT6=
EXTT7=
EXTT8=
EXTT9=
EXTT10=
EXTT11=
PLAYORDER=
